<?xml version="1.0" standalone="no"?>
<!DOCTYPE svg PUBLIC "-//W3C//DTD SVG 20010904//EN"
 "http://www.w3.org/TR/2001/REC-SVG-20010904/DTD/svg10.dtd">
<svg version="1.0" xmlns="http://www.w3.org/2000/svg"
 width="635.000000pt" height="476.000000pt" viewBox="0 0 635.000000 476.000000"
 preserveAspectRatio="xMidYMid meet">

<g transform="translate(0.000000,476.000000) scale(0.100000,-0.100000)"
fill="#000000" stroke="none">
<path d="M3395 4454 c-82 -13 -198 -46 -272 -77 -284 -120 -475 -374 -448
-597 7 -64 35 -127 69 -159 21 -20 22 -26 14 -74 -12 -62 -4 -162 17 -236 l16
-53 -85 -88 c-144 -150 -248 -330 -282 -489 -18 -87 -18 -232 1 -306 42 -162
159 -331 299 -431 l29 -21 -22 -37 c-13 -20 -25 -36 -28 -36 -2 0 -81 16 -174
35 -94 19 -180 35 -193 35 -34 0 -56 -32 -134 -194 -88 -181 -91 -215 -22
-251 73 -38 105 -14 175 126 31 60 59 109 64 109 4 0 75 -13 156 -30 151 -31
191 -35 220 -24 9 4 39 41 67 83 28 42 52 77 53 79 1 1 44 -12 96 -29 122 -42
297 -52 412 -24 44 11 72 14 75 7 5 -15 209 -319 268 -399 73 -99 79 -100 227
-27 65 32 130 69 143 81 44 41 24 121 -36 142 -25 8 -41 4 -110 -30 -45 -21
-85 -39 -89 -39 -5 0 -61 84 -125 186 l-117 186 58 54 58 53 383 1 383 0 159
120 160 120 0 400 c0 353 -2 400 -16 415 -15 14 -60 16 -425 13 -394 -3 -409
-2 -415 16 -4 11 0 22 9 27 27 16 127 146 161 212 45 87 69 196 64 297 l-3 80
59 23 c65 24 144 91 147 122 3 47 -3 66 -33 100 -35 40 -119 86 -217 119 -63
22 -64 22 -80 77 -46 148 -183 262 -376 315 -59 16 -278 27 -340 18z m725
-868 c0 -116 -54 -254 -136 -345 -38 -42 -57 -54 -112 -72 -37 -11 -103 -23
-148 -26 -105 -7 -175 12 -237 67 -45 40 -47 41 -72 24 -14 -9 -25 -20 -25
-24 0 -4 21 -26 46 -50 65 -60 123 -83 223 -88 79 -4 83 -6 58 -18 -52 -27
-191 -54 -283 -54 -287 0 -515 166 -554 405 -10 59 -4 145 9 145 4 0 30 -6 57
-14 100 -29 213 -39 398 -33 238 7 441 42 731 126 40 11 45 7 45 -43z m530
-647 c-14 -11 -53 -40 -86 -65 l-62 -44 -298 2 -299 3 84 63 83 62 302 0 301
0 -25 -21z m120 -351 l0 -323 -87 -65 c-47 -36 -92 -68 -99 -73 -10 -5 -12 59
-11 315 l2 322 95 72 c52 40 96 73 98 73 1 1 2 -144 2 -321z m-290 -183 l0
-335 -335 0 -335 0 0 114 0 114 31 -15 c35 -18 57 -13 229 50 120 43 144 70
126 143 -7 30 -49 64 -80 64 -9 0 -63 -16 -120 -36 l-104 -36 -40 29 -41 28
-1 108 0 107 335 0 335 0 0 -335z"/>
<path d="M3910 3461 c-15 -29 -12 -46 10 -66 42 -38 98 12 70 64 -14 28 -65
29 -80 2z"/>
<path d="M3480 3389 c-17 -31 -4 -68 27 -75 33 -9 57 6 61 38 6 51 -65 81 -88
37z"/>
<path d="M2011 3730 c-74 -11 -91 -16 -91 -29 0 -14 35 -20 172 -31 120 -10
357 0 416 16 32 9 27 22 -15 34 -49 14 -399 22 -482 10z"/>
<path d="M1913 3429 c-106 -8 -159 -24 -131 -40 74 -41 608 -32 608 10 0 14
-45 22 -170 32 -129 10 -162 9 -307 -2z"/>
<path d="M1583 2369 c-148 -19 -106 -46 90 -58 142 -9 366 1 412 19 26 10 28
13 13 21 -46 26 -369 37 -515 18z"/>
<path d="M1842 2110 c-158 -20 -124 -46 77 -61 152 -10 385 2 424 23 21 11 20
12 -23 26 -56 17 -375 25 -478 12z"/>
<path d="M380 971 c-70 -25 -141 -98 -160 -165 -20 -71 -9 -184 23 -238 48
-83 133 -128 238 -128 70 0 151 28 191 67 27 25 28 31 28 113 0 54 -5 91 -12
98 -16 16 -210 16 -226 0 -17 -17 -15 -44 4 -62 10 -11 34 -16 74 -16 50 0 60
-3 65 -20 17 -54 -31 -90 -120 -90 -76 0 -120 22 -151 76 -20 33 -26 59 -27
103 -1 155 134 232 271 155 57 -32 84 -27 90 15 12 78 -168 135 -288 92z"/>
<path d="M1802 974 c-22 -15 -22 -18 -22 -259 0 -208 2 -246 16 -259 8 -9 24
-16 34 -16 41 0 50 26 50 135 0 94 2 106 22 125 25 23 75 26 104 6 16 -12 20
-30 24 -132 l5 -119 29 -10 c24 -8 31 -6 48 15 19 23 20 35 16 137 -4 91 -9
118 -27 146 -38 61 -127 85 -191 52 l-30 -16 0 90 c0 82 -2 91 -22 105 -12 9
-25 16 -28 16 -3 0 -16 -7 -28 -16z"/>
<path d="M4610 970 c-19 -19 -20 -33 -20 -258 0 -219 2 -240 18 -255 44 -40
82 -9 82 67 0 89 18 89 86 2 60 -77 79 -91 107 -80 43 16 26 62 -69 180 l-24
31 55 42 c56 42 69 73 43 99 -21 21 -44 13 -114 -43 -38 -30 -72 -55 -76 -55
-5 0 -8 58 -8 129 0 123 -1 131 -22 145 -29 20 -34 20 -58 -4z"/>
<path d="M787 933 c-12 -11 -8 -68 5 -81 7 -7 24 -12 38 -12 14 0 31 5 38 12
7 7 12 24 12 38 0 14 -5 31 -12 38 -13 13 -70 17 -81 5z"/>
<path d="M3537 928 c-11 -9 -17 -31 -19 -68 -3 -54 -4 -55 -37 -60 -69 -10
-67 -72 3 -78 l36 -3 0 -130 c0 -129 0 -129 26 -141 18 -9 30 -9 42 -1 14 8
17 32 20 141 l3 131 41 3 c77 6 79 68 2 78 l-39 5 -3 55 c-4 76 -31 100 -75
68z"/>
<path d="M3746 924 c-18 -47 1 -84 44 -84 33 0 50 17 50 50 0 14 -5 31 -12 38
-18 18 -75 15 -82 -4z"/>
<path d="M4388 929 c-14 -8 -18 -23 -18 -69 l0 -59 -36 -3 c-72 -6 -72 -70 -1
-76 l36 -3 3 -132 3 -132 28 -9 c50 -18 60 5 61 146 l1 123 37 3 c44 4 62 23
54 56 -5 21 -13 25 -48 28 l-43 3 -1 52 c-1 74 -29 100 -76 72z"/>
<path d="M4982 928 c-7 -7 -12 -24 -12 -38 0 -33 17 -50 50 -50 33 0 50 17 50
50 0 14 -5 31 -12 38 -15 15 -61 15 -76 0z"/>
<path d="M796 794 c-23 -23 -23 -315 0 -338 20 -20 48 -20 68 0 13 13 16 43
16 169 0 163 -6 185 -50 185 -10 0 -26 -7 -34 -16z"/>
<path d="M1014 799 c-42 -12 -58 -33 -50 -65 7 -28 18 -29 126 -9 27 5 41 2
63 -15 31 -25 39 -67 10 -55 -72 29 -172 6 -198 -45 -50 -96 24 -181 143 -166
64 8 83 9 112 2 50 -12 55 2 55 143 0 146 -9 169 -76 203 -37 19 -131 23 -185
7z m154 -222 c30 -24 -8 -67 -60 -67 -39 0 -72 34 -58 60 15 29 84 33 118 7z"/>
<path d="M1445 794 c-45 -23 -66 -45 -86 -89 -31 -67 -19 -155 29 -208 68 -75
204 -75 274 -1 80 86 59 238 -42 291 -51 27 -130 31 -175 7z m125 -79 c63 -33
62 -148 -2 -181 -63 -33 -128 13 -128 90 0 82 62 126 130 91z"/>
<path d="M2267 800 c-40 -12 -57 -29 -57 -57 0 -32 21 -38 89 -23 48 10 64 10
87 -1 31 -16 56 -76 26 -64 -99 38 -202 -2 -216 -85 -16 -91 97 -159 200 -119
21 7 34 7 51 -2 17 -9 29 -10 48 -1 25 11 25 13 25 133 0 147 -12 182 -74 210
-43 20 -129 24 -179 9z m121 -211 c36 -12 45 -31 28 -54 -16 -23 -86 -30 -110
-12 -26 19 -15 64 17 70 12 2 25 5 28 6 3 0 20 -4 37 -10z"/>
<path d="M2622 798 c-8 -8 -12 -61 -12 -174 0 -180 5 -196 58 -178 27 9 27 11
32 121 6 130 18 153 80 153 60 0 70 -20 70 -136 0 -74 4 -105 16 -122 18 -26
46 -28 69 -5 14 14 16 35 13 137 -3 108 -6 125 -26 154 -13 18 -36 39 -52 47
-37 19 -103 19 -138 1 -24 -12 -30 -12 -47 0 -23 17 -47 18 -63 2z"/>
<path d="M3120 799 c-29 -12 -67 -46 -82 -74 -33 -60 -26 -160 14 -211 44 -55
143 -79 202 -49 36 19 36 19 36 -9 0 -66 -78 -92 -167 -57 -50 19 -53 20 -74
2 -51 -41 18 -92 136 -98 59 -4 77 -1 115 19 76 39 84 65 88 261 2 93 1 180
-2 193 -8 31 -50 42 -75 19 -18 -15 -22 -15 -50 -1 -33 18 -103 20 -141 5z
m148 -105 c24 -27 29 -81 11 -116 -29 -55 -125 -53 -154 3 -54 103 67 199 143
113z"/>
<path d="M3756 794 c-13 -13 -16 -43 -16 -169 0 -163 6 -185 50 -185 44 0 50
22 50 185 0 163 -6 185 -50 185 -10 0 -26 -7 -34 -16z"/>
<path d="M4002 789 c-87 -43 -121 -172 -69 -264 53 -95 208 -115 290 -37 29
28 34 51 15 70 -18 18 -35 15 -76 -13 -51 -35 -118 -30 -144 9 -21 31 -8 35
115 38 l122 3 -1 46 c-1 132 -130 208 -252 148z m136 -79 c12 -12 22 -25 22
-30 0 -6 -34 -10 -75 -10 -41 0 -75 3 -75 7 0 4 10 17 22 30 27 29 76 30 106
3z"/>
<path d="M4986 794 c-13 -13 -16 -43 -16 -169 0 -163 6 -185 50 -185 44 0 50
22 50 185 0 163 -6 185 -50 185 -10 0 -26 -7 -34 -16z"/>
<path d="M5235 790 c-60 -30 -89 -79 -93 -159 -2 -54 1 -73 20 -105 48 -82
168 -111 259 -63 50 27 71 66 49 91 -17 22 -33 20 -76 -9 -45 -30 -92 -32
-128 -4 -51 40 -37 48 97 51 l122 3 3 40 c4 56 -33 124 -84 152 -49 29 -116
30 -169 3z m143 -87 l27 -28 -79 -3 c-43 -2 -81 0 -85 3 -3 4 7 18 22 31 38
33 81 31 115 -3z"/>
<path d="M5576 794 c-13 -13 -16 -43 -16 -169 0 -163 6 -185 50 -185 37 0 50
38 50 142 0 113 13 138 73 138 56 0 67 -22 67 -136 0 -106 13 -144 50 -144 40
0 50 26 50 129 0 84 3 102 21 125 23 30 72 35 105 12 16 -12 20 -31 24 -132 5
-118 5 -119 32 -128 50 -18 58 1 58 138 0 140 -13 180 -70 209 -47 24 -129 19
-170 -11 l-29 -22 -37 25 c-43 29 -103 33 -148 10 -26 -14 -31 -14 -46 0 -21
19 -44 19 -64 -1z"/>
</g>
</svg>
